<svg xmlns="http://www.w3.org/2000/svg" xmlns:xlink="http://www.w3.org/1999/xlink" aria-hidden="true" role="img" class="iconify iconify--logos" width="35.93" height="32" preserveAspectRatio="xMidYMid meet" viewBox="0 0 256 228"><path fill="#00D8FF" d="M210.483 73.824a171.49 171.49 0 0 0-8.24-2.597c.465-1.577.924-3.15 1.376-4.712c6.238-21.268 8.456-38.46 6.555-51.196c-1.776-11.892-7.468-19.412-16.228-21.68c-8.43-2.173-19.085.869-30.547 8.486a171.23 171.23 0 0 0-5.696 4.157a155.866 155.866 0 0 0-5.248-4.157C140.591 1.857 129.936-1.185 121.506.988c-8.76 2.268-14.452 9.788-16.228 21.68c-1.901 12.736.317 29.928 6.555 51.196c.452 1.562.911 3.135 1.376 4.712a171.49 171.49 0 0 0-8.24 2.597C87.582 82.5 66.375 95.004 51.618 111.602c-16.413 18.613-26.304 40.598-26.304 64.09c0 29.327 13.631 55.693 35.229 73.953c19.783 16.72 45.562 25.932 73.417 25.932c27.855 0 53.634-9.212 73.417-25.932c21.598-18.26 35.229-44.626 35.229-73.953c0-23.492-9.891-45.477-26.304-64.09c-14.757-16.598-35.964-29.102-58.739-37.778Zm6.093 135.86c-17.514 14.806-40.335 22.962-64.876 22.962c-24.541 0-47.362-8.156-64.876-22.962c-18.417-15.573-28.73-37.33-28.73-60.959c0-20.282 8.18-39.632 22.74-55.666c14.998-16.536 35.713-28.747 57.777-36.172a183.004 183.004 0 0 1 6.537-2.102c1.657-.519 3.325-1.025 5.002-1.519c.785-.23 1.572-.455 2.36-.675c1.407-.392 2.818-.772 4.233-1.139c.741-.19 1.483-.377 2.227-.557c1.555-.376 3.115-.74 4.68-1.091c.8-.18 1.601-.356 2.403-.527c1.673-.356 3.35-.699 5.032-1.029c.752-.148 1.505-.293 2.259-.433c1.916-.357 3.836-.698 5.76-1.022c.51-.085 1.02-.169 1.531-.251c4.054-.65 8.128-1.19 12.213-1.613c.784-.08 1.569-.157 2.354-.23c1.996-.19 3.996-.361 6-.514c.504-.038 1.008-.075 1.513-.11c5.076-.356 10.17-.535 15.266-.535c.986 0 1.971.02 2.954.06c5.096.201 10.18.58 15.24 1.133c.35.038.699.078 1.048.12c4.285.574 8.54 1.276 12.755 2.098a183.004 183.004 0 0 1 6.537 2.102c22.064 7.425 42.779 19.636 57.777 36.172c14.56 16.034 22.74 35.384 22.74 55.666c0 23.629-10.313 45.386-28.73 60.959Z"></path><path fill="#00D8FF" d="M197.305 150.023c-3.614 21.19-15.578 39.82-33.176 52.316c-16.662 11.848-37.006 18.28-57.957 18.28c-9.447 0-18.878-1.332-27.93-3.946c-2.773-.796-5.508-1.687-8.197-2.665c11.447 8.012 25.13 12.357 39.127 12.357c20.951 0 41.295-6.432 57.957-18.28c17.598-12.496 29.562-31.126 33.176-52.316c.695-4.078 1.046-8.21 1.046-12.377c0-4.167-.351-8.299-1.046-12.377c-3.614-21.19-15.578-39.82-33.176-52.316c-16.662-11.848-37.006-18.28-57.957-18.28c-14.07 0-27.814 4.395-39.31 12.514c2.732-.997 5.51-1.908 8.328-2.727c9.096-2.63 18.574-3.97 28.082-3.97c20.951 0 41.295 6.432 57.957 18.28c17.598 12.496 29.562 31.126 33.176 52.316c.695 4.078 1.046 8.21 1.046 12.377c0 4.167-.351 8.299-1.046 12.377Z"></path></svg>

